<mxfile host="app.diagrams.net" modified="2024-03-10T03:28:33.481Z" agent="Mozilla/5.0 (Macintosh; Intel Mac OS X 10_15_7) AppleWebKit/537.36 (KHTML, like Gecko) Chrome/122.0.0.0 Safari/537.36" version="24.0.3" etag="9f7gZY7LOEeBFZl1sTJY" type="github">
  <diagram name="第 1 页" id="hsVFEAZQAEEvjb_Sa2gN">
    <mxGraphModel>
      <root>
        <mxCell id="0" />
        <mxCell id="1" parent="0" />
      </root>
    </mxGraphModel>
  </diagram>
</mxfile>
